<svg width="64" height="16" viewBox="0 0 64 16" fill="none" xmlns="http://www.w3.org/2000/svg">
<path d="M10.1064 1H1.89758V3.9294H10.1064V1Z" fill="#F8F8F8" stroke="#263238" stroke-linecap="round" stroke-linejoin="round"/>
<path d="M10.1775 3.9294H1.82245L2.86634 15.14H9.13364L10.1775 3.9294Z" fill="#5FEA87" stroke="#263238" stroke-linecap="round" stroke-linejoin="round"/>
<path d="M11 3.41434H1V5.14059H11V3.41434Z" fill="#F8F8F8" stroke="#263238" stroke-linecap="round" stroke-linejoin="round"/>
<path d="M14.8285 15.07H12.3569L16.1229 4.1609H19.0952L22.8558 15.07H20.3842L17.6516 6.6538H17.5664L14.8285 15.07ZM14.674 10.782H20.5121V12.5824H14.674V10.782ZM26.3954 4.1609V15.07H24.1262V4.1609H26.3954ZM30.4823 4.1609V15.07H28.2132V4.1609H30.4823ZM34.6332 15.2245C34.1112 15.2245 33.646 15.1339 33.2376 14.9528C32.8292 14.7681 32.506 14.4965 32.2681 14.1378C32.0337 13.7756 31.9165 13.3246 31.9165 12.7848C31.9165 12.3303 32 11.9485 32.1669 11.6396C32.3338 11.3306 32.5611 11.0821 32.8487 10.8939C33.1364 10.7056 33.4631 10.5636 33.8288 10.4677C34.1982 10.3718 34.5852 10.3044 34.9901 10.2653C35.4659 10.2156 35.8494 10.1694 36.1406 10.1268C36.4318 10.0806 36.6431 10.0132 36.7745 9.9244C36.9059 9.83562 36.9716 9.70422 36.9716 9.53022V9.49826C36.9716 9.1609 36.8651 8.89989 36.652 8.71523C36.4425 8.53057 36.1442 8.43824 35.7571 8.43824C35.3487 8.43824 35.0238 8.5288 34.7823 8.70991C34.5408 8.88746 34.381 9.11119 34.3029 9.38107L32.2042 9.21062C32.3107 8.71346 32.5202 8.28377 32.8327 7.92155C33.1452 7.55579 33.5483 7.27525 34.0419 7.07993C34.5391 6.88107 35.1143 6.78164 35.7678 6.78164C36.2223 6.78164 36.6573 6.83491 37.0728 6.94144C37.4918 7.04797 37.8629 7.2131 38.1861 7.43682C38.5128 7.66055 38.7702 7.94819 38.9585 8.29975C39.1467 8.64776 39.2408 9.06502 39.2408 9.55153V15.07H37.0888V13.9354H37.0249C36.8935 14.1911 36.7177 14.4166 36.4975 14.6119C36.2773 14.8037 36.0128 14.9546 35.7038 15.0647C35.3949 15.1712 35.038 15.2245 34.6332 15.2245ZM35.283 13.6584C35.6168 13.6584 35.9116 13.5927 36.1673 13.4613C36.4229 13.3264 36.6236 13.1453 36.7692 12.918C36.9148 12.6907 36.9876 12.4333 36.9876 12.1456V11.2774C36.9165 11.3235 36.8189 11.3662 36.6946 11.4052C36.5739 11.4407 36.4371 11.4745 36.2844 11.5064C36.1317 11.5348 35.979 11.5615 35.8263 11.5863C35.6737 11.6076 35.5352 11.6272 35.4109 11.6449C35.1445 11.684 34.9119 11.7461 34.7131 11.8314C34.5142 11.9166 34.3597 12.032 34.2496 12.1776C34.1396 12.3196 34.0845 12.4972 34.0845 12.7103C34.0845 13.0192 34.1964 13.2554 34.4201 13.4187C34.6474 13.5785 34.935 13.6584 35.283 13.6584ZM43.2704 10.3399V15.07H41.0012V6.88817H43.1639V8.33171H43.2598C43.4409 7.85586 43.7445 7.47944 44.1706 7.20245C44.5968 6.92191 45.1135 6.78164 45.7207 6.78164C46.2889 6.78164 46.7843 6.90593 47.2069 7.15451C47.6294 7.40309 47.9579 7.7582 48.1923 8.21985C48.4267 8.67795 48.5439 9.22482 48.5439 9.86047V15.07H46.2747V10.2653C46.2782 9.76459 46.1504 9.37397 45.8912 9.09343C45.6319 8.80934 45.275 8.66729 44.8205 8.66729C44.5151 8.66729 44.2452 8.73299 44.0108 8.86438C43.78 8.99577 43.5989 9.18753 43.4675 9.43967C43.3397 9.68824 43.274 9.98832 43.2704 10.3399ZM54.8427 15.07V4.1609H59.1467C59.9705 4.1609 60.6737 4.30827 61.256 4.60302C61.842 4.89421 62.2876 5.30792 62.593 5.84414C62.902 6.37681 63.0565 7.00359 63.0565 7.72447C63.0565 8.4489 62.9002 9.07212 62.5877 9.59414C62.2752 10.1126 61.8224 10.5103 61.2294 10.7873C60.6399 11.0643 59.9261 11.2028 59.0881 11.2028H56.2063V9.34911H58.7152C59.1555 9.34911 59.5213 9.28874 59.8125 9.168C60.1037 9.04726 60.3203 8.86616 60.4624 8.62468C60.608 8.3832 60.6808 8.08313 60.6808 7.72447C60.6808 7.36225 60.608 7.05685 60.4624 6.80827C60.3203 6.55969 60.1019 6.37148 59.8072 6.24364C59.516 6.11225 59.1484 6.04655 58.7045 6.04655H57.1491V15.07H54.8427ZM60.734 10.1055L63.4453 15.07H60.8991L58.2464 10.1055H60.734Z" fill="#F8F8F8"/>
<path d="M51.6586 15.2085C51.3071 15.2085 51.0052 15.0842 50.7531 14.8356C50.5045 14.5835 50.3802 14.2816 50.3802 13.9301C50.3802 13.5821 50.5045 13.2838 50.7531 13.0352C51.0052 12.7866 51.3071 12.6623 51.6586 12.6623C51.9996 12.6623 52.2979 12.7866 52.5535 13.0352C52.8092 13.2838 52.9371 13.5821 52.9371 13.9301C52.9371 14.1645 52.8767 14.3793 52.7559 14.5746C52.6388 14.7664 52.4843 14.9208 52.2925 15.038C52.1008 15.1517 51.8895 15.2085 51.6586 15.2085Z" fill="#5FEA87"/>
</svg>
